<svg preserveAspectRatio="xMidYMid meet" data-bbox="49.736 16.226 100.528 167.548" viewBox="49.736 16.226 100.528 167.548" height="200" width="200" xmlns="http://www.w3.org/2000/svg" data-type="color" role="img" aria-label="Homepage"><defs><style>#comp-jvcei3jf svg [data-color="1"] {fill: #22495A;}</style></defs>
    <g>
        <path d="M150.264 88.132c0-39.649-22.548-71.906-50.264-71.906S49.736 48.483 49.736 88.132c0 38.645 21.422 70.252 48.17 71.83v23.812h4.189v-23.812c26.747-1.578 48.169-33.185 48.169-71.83zM100 20.415c15.52 0 29.261 11.347 37.614 28.68l-22.768 22.562c-6.242-9.004-12.755-16.433-13.275-17.024-.796-.901-2.345-.901-3.142 0-.519.589-6.998 7.979-13.224 16.95L62.484 48.892C70.846 31.674 84.541 20.415 100 20.415zm-2.094 63.852L88.227 74.6c3.283-4.781 6.791-9.329 9.679-12.862v22.529zm0 5.92v15.019L80.747 88.048l-.85.85c1.488-3.373 3.596-7.066 5.962-10.742l12.047 12.031zm-19.203 1.739l19.203 19.203v8.312c-11.339-1.06-20.245-10.623-20.245-22.234-.001-1.538.379-3.327 1.042-5.281zm23.391 19.203l19.203-19.203c.663 1.954 1.042 3.743 1.042 5.281 0 11.611-8.907 21.173-20.245 22.234v-8.312zm17.159-23.081l-17.158 17.158V90.192l12.085-11.976c2.35 3.656 4.444 7.327 5.924 10.682l-.851-.85zm-17.159-3.754V61.739c2.9 3.548 6.425 8.119 9.721 12.922l-9.721 9.633zm-48.17 3.838c0-12.868 2.456-24.908 6.714-35.164l22.185 22.156c-5.039 7.731-9.351 16.092-9.351 22.084 0 13.921 10.784 25.348 24.434 26.422v32.141c-24.438-1.616-43.982-31.332-43.982-67.639zm48.17 67.639V123.63c13.65-1.074 24.434-12.501 24.434-26.422 0-5.973-4.284-14.299-9.303-22.01l22.222-22.022c4.205 10.211 6.629 22.175 6.629 34.956 0 36.307-19.544 66.023-43.982 67.639z" fill="#22495A" data-color="1"></path>
    </g>
</svg>